<?xml version="1.0" standalone="no"?>
<!DOCTYPE svg PUBLIC "-//W3C//DTD SVG 20010904//EN"
 "http://www.w3.org/TR/2001/REC-SVG-20010904/DTD/svg10.dtd">
<svg version="1.0" xmlns="http://www.w3.org/2000/svg"
 width="300.000000pt" height="302.000000pt" viewBox="0 0 300.000000 302.000000"
 preserveAspectRatio="xMidYMid meet">
<metadata>
Created by potrace 1.10, written by Peter Selinger 2001-2011
</metadata>
<g transform="translate(0.000000,302.000000) scale(0.100000,-0.100000)"
fill="#000000" stroke="none">
<path d="M1292 2838 c-76 -11 -128 -42 -202 -118 -36 -37 -99 -90 -141 -119
-122 -83 -182 -188 -204 -355 -2 -22 -26 -65 -64 -116 -70 -94 -103 -183 -103
-275 1 -70 16 -144 39 -189 10 -18 19 -71 24 -131 15 -207 98 -328 290 -421
48 -24 93 -56 130 -93 83 -84 190 -131 299 -131 69 1 113 17 194 69 l63 42
209 -1 c165 -1 219 -4 255 -17 56 -19 91 -12 130 27 41 40 41 105 1 148 -38
41 -73 48 -125 28 -41 -16 -127 -22 -127 -10 0 4 14 22 30 41 37 42 39 86 7
134 -32 47 -78 58 -152 35 -43 -14 -81 -17 -163 -14 -105 3 -109 4 -180 46
-97 55 -114 59 -157 33 -42 -24 -63 -26 -125 -8 -104 29 -169 1 -223 -95 -13
-24 -32 -45 -41 -46 -12 -3 -36 15 -66 47 -60 64 -82 129 -78 232 2 56 -2 83
-16 109 -10 19 -22 48 -27 64 l-8 29 22 -21 c13 -12 34 -23 48 -24 29 -2 89
20 89 33 0 18 52 8 110 -21 101 -51 136 -37 190 75 32 66 87 100 160 100 48 0
65 -6 128 -45 120 -74 116 -73 253 -76 74 -1 137 -7 149 -14 31 -17 86 -15
114 3 13 9 31 32 41 53 23 49 9 100 -38 132 -39 26 -69 28 -125 8 -27 -10 -69
-13 -132 -10 -89 3 -96 5 -157 45 -35 23 -62 44 -59 46 2 2 119 4 259 3 190 0
264 -4 289 -14 56 -23 106 -6 138 47 25 41 25 71 0 112 -26 41 -68 59 -120 51
l-40 -6 11 27 c12 33 4 86 -16 103 -8 7 -15 19 -15 26 0 20 103 18 162 -2 41
-13 50 -14 82 0 39 16 76 67 76 104 0 77 -97 136 -163 100 -14 -7 -105 -13
-258 -15 -200 -4 -242 -2 -267 11 -16 8 -63 52 -103 96 -41 45 -91 90 -113
101 -50 27 -118 37 -184 27z m140 -43 c36 -13 65 -38 142 -120 l97 -105 263 0
c217 0 268 3 294 15 58 29 112 -6 112 -71 0 -57 -87 -99 -120 -59 -11 13 -54
15 -298 15 l-285 -1 -81 85 c-105 110 -145 136 -207 136 -62 0 -89 -11 -138
-55 -90 -81 -91 -192 -3 -284 40 -42 65 -57 161 -95 l114 -45 299 -1 c196 -1
304 3 312 9 51 43 126 7 126 -59 0 -63 -68 -102 -116 -65 -16 12 -72 14 -330
15 l-312 0 -95 34 c-96 35 -163 45 -204 32 -13 -4 -34 -27 -48 -51 -29 -49
-41 -56 -72 -44 -45 16 -42 91 7 155 33 43 37 77 16 126 -8 18 -20 48 -26 66
-16 42 -39 41 -77 -5 -56 -70 -67 -101 -69 -195 -2 -94 -10 -113 -64 -153
-111 -82 -141 -237 -70 -373 30 -58 32 -67 25 -127 -8 -79 11 -152 55 -213 35
-49 107 -104 129 -100 9 2 28 26 43 53 57 107 111 127 231 88 47 -15 49 -14
101 12 l54 27 85 -51 86 -52 143 3 c95 3 154 9 175 18 30 13 35 12 60 -6 42
-32 52 -68 26 -102 -30 -40 -67 -51 -105 -29 -24 14 -56 17 -183 17 l-154 0
-65 36 c-53 29 -69 33 -85 25 -33 -18 -40 -41 -25 -83 12 -35 12 -40 -6 -58
-11 -11 -27 -20 -35 -20 -24 0 -53 36 -65 82 -16 57 -36 78 -76 78 -63 0 -82
-55 -45 -129 41 -79 135 -131 239 -131 36 0 60 9 119 46 l73 45 252 0 c209 -1
256 2 272 14 32 24 81 19 105 -11 27 -34 27 -64 0 -98 -22 -28 -64 -35 -100
-15 -12 6 -108 10 -254 10 l-234 0 -66 -45 c-101 -69 -170 -81 -276 -50 -83
25 -120 47 -179 109 -41 42 -77 67 -138 96 -100 46 -151 86 -197 153 -50 74
-75 154 -75 245 0 59 -6 87 -25 129 -72 155 -47 324 69 460 45 53 55 77 74
184 22 119 93 220 197 279 28 15 80 60 117 99 107 112 210 145 330 105z m-36
-145 c29 -11 243 -220 225 -220 -30 0 -145 52 -204 93 -76 53 -104 57 -141 25
-32 -28 -36 -71 -12 -117 36 -68 79 -94 238 -147 87 -28 98 -44 31 -44 -48 0
-273 95 -304 128 -39 41 -62 115 -50 158 27 98 130 157 217 124z m13 -159 c44
-34 91 -58 155 -79 81 -28 105 -32 221 -33 106 -2 136 1 164 15 56 30 111 -5
111 -70 0 -58 -86 -100 -120 -59 -10 12 -41 15 -159 15 -142 0 -149 1 -266 38
-143 46 -174 61 -209 102 -28 34 -35 87 -14 108 22 22 52 12 117 -37z m-386
-113 c31 -65 30 -81 -3 -135 -17 -28 -34 -69 -37 -91 -5 -36 -2 -45 25 -72 18
-18 41 -30 56 -30 26 0 37 9 89 70 27 31 30 33 83 27 30 -3 61 -10 68 -16 7
-6 16 -8 19 -4 4 3 7 1 7 -5 0 -6 -22 -18 -49 -26 -70 -21 -89 -32 -153 -92
-76 -72 -102 -73 -152 -4 -23 32 -45 52 -63 56 -16 3 -32 7 -36 7 -4 1 4 18
18 37 21 28 25 45 25 99 0 36 4 83 9 104 9 37 55 107 70 107 5 0 16 -15 24
-32z m457 -325 c24 -8 77 -37 117 -64 l72 -49 118 0 c88 1 123 4 137 15 74 56
162 -67 90 -124 -31 -25 -63 -27 -90 -6 -14 11 -51 14 -153 15 l-134 0 -89 56
c-102 65 -144 77 -208 63 -72 -16 -112 -49 -153 -127 -53 -101 -51 -101 -148
-53 -89 44 -102 45 -155 5 -39 -30 -55 -30 -84 1 -26 27 -23 37 25 104 20 27
24 41 19 70 -8 48 22 77 73 72 7 0 21 -18 32 -38 47 -94 104 -102 184 -26 65
61 95 81 149 99 49 15 129 10 198 -13z m-663 -95 c-6 -47 -36 -98 -59 -98 -21
0 5 98 34 130 28 30 31 25 25 -32z m404 -749 c35 -94 95 -124 145 -74 21 21
25 33 23 73 -4 59 10 63 80 27 47 -23 65 -26 208 -30 121 -4 161 -9 172 -20
14 -13 -1 -15 -132 -15 -159 0 -172 -3 -268 -67 -20 -13 -46 -25 -58 -28 -34
-6 -128 14 -166 36 -54 32 -98 116 -75 144 20 24 53 2 71 -46z"/>
<path d="M1252 1830 c-13 -11 -28 -36 -34 -57 -15 -54 -36 -82 -72 -91 -41
-11 -80 0 -122 37 -47 42 -79 49 -112 24 -44 -32 -49 -64 -22 -122 18 -39 21
-58 15 -88 -12 -61 -8 -86 15 -105 29 -24 78 -23 115 2 42 29 119 63 189 85
58 18 59 18 115 -6 40 -17 80 -25 141 -27 l85 -3 70 50 69 51 152 0 c112 0
163 -4 195 -16 26 -9 57 -13 76 -9 59 11 108 97 82 147 -33 65 -95 93 -147 67
-19 -10 -87 -15 -232 -19 l-205 -5 -62 -44 c-56 -39 -67 -43 -103 -38 -58 8
-70 21 -70 79 0 41 -5 54 -29 79 -35 34 -75 38 -109 9z m93 -30 c14 -15 16
-29 10 -65 -10 -67 8 -89 85 -105 l61 -13 69 48 69 47 195 -1 c163 -2 200 1
218 13 52 37 128 3 128 -58 0 -59 -66 -95 -121 -66 -11 6 -94 11 -196 11
l-177 1 -68 -51 c-54 -41 -75 -51 -106 -51 -62 0 -150 20 -187 41 l-34 21
-107 -38 c-58 -21 -120 -48 -138 -61 -60 -44 -73 -48 -102 -29 -21 15 -25 23
-19 44 19 74 17 100 -9 145 -28 47 -26 71 5 87 30 16 47 12 86 -24 50 -44 75
-56 115 -56 37 0 92 29 106 57 6 10 13 35 17 56 4 21 14 45 22 52 20 21 57 19
78 -5z"/>
<path d="M985 798 c-51 -47 -59 -106 -20 -162 26 -38 26 -39 6 -60 -55 -59 -3
-129 97 -129 49 0 85 22 120 73 21 32 22 32 22 8 0 -37 36 -78 69 -78 33 0 71
37 71 68 0 12 3 22 6 22 4 0 29 -20 55 -45 54 -51 68 -54 95 -24 15 17 19 40
22 132 2 61 5 114 8 116 2 3 15 -6 28 -20 21 -21 25 -36 28 -118 4 -87 6 -96
31 -117 30 -26 62 -22 90 9 13 16 17 39 17 112 0 87 1 94 25 109 13 9 26 16
27 16 2 0 1 -23 -1 -52 -4 -69 15 -122 60 -163 72 -65 170 -67 223 -4 14 17
26 35 26 39 0 5 -14 25 -30 44 -29 32 -32 34 -67 24 -33 -9 -39 -8 -55 12 -23
29 -23 43 2 65 17 15 24 16 45 7 33 -15 71 2 92 41 14 27 13 32 -5 56 -26 35
-59 51 -109 51 -54 0 -82 -11 -126 -50 -34 -29 -36 -30 -42 -10 -15 47 -43 60
-134 60 -73 0 -88 -3 -107 -21 l-23 -21 -27 21 c-15 11 -37 21 -49 21 -24 0
-65 -38 -65 -61 0 -31 -15 -29 -54 10 -56 53 -79 59 -105 25 -18 -22 -21 -41
-21 -110 0 -49 -4 -84 -10 -84 -5 0 -10 7 -10 15 0 8 -3 15 -8 15 -4 0 -13 9
-19 19 -10 16 -8 27 10 60 l22 40 -32 32 c-26 27 -41 33 -86 37 -51 4 -57 2
-92 -30z m151 -23 c21 -13 22 -18 12 -40 -13 -29 -20 -31 -53 -9 -14 9 -32 14
-40 10 -28 -10 -15 -36 35 -67 57 -35 70 -54 70 -101 0 -39 -28 -75 -66 -84
-33 -8 -83 2 -105 22 -17 15 -17 18 -3 40 15 22 17 23 46 8 67 -35 80 24 13
61 -53 29 -79 80 -64 124 20 58 95 76 155 36z m211 -62 l81 -88 -5 83 -6 82
37 0 36 0 0 -155 c0 -118 -3 -155 -12 -154 -7 0 -48 41 -90 90 l-78 89 0 -90
0 -90 -30 0 -30 0 0 160 c0 88 3 160 8 160 4 0 44 -39 89 -87z m669 71 c46
-22 50 -31 23 -60 -20 -21 -24 -22 -39 -9 -44 40 -115 -6 -115 -75 0 -68 62
-111 115 -78 15 10 23 9 39 -6 28 -26 27 -33 -11 -57 -106 -66 -243 52 -208
180 26 98 113 144 196 105z m-256 -24 c0 -28 -3 -30 -36 -30 l-35 0 2 -122 3
-123 -32 -3 -32 -3 0 125 0 126 -33 0 c-31 0 -34 3 -34 30 l0 30 99 0 98 0 0
-30z"/>
<path d="M1005 403 c-11 -3 -24 -9 -29 -13 -5 -5 -19 -4 -32 2 -18 8 -27 8
-39 -2 -13 -11 -20 -11 -40 0 -22 12 -27 11 -45 -5 -18 -16 -20 -31 -20 -130
0 -125 7 -142 58 -130 16 3 40 1 54 -4 44 -17 58 10 58 112 0 77 2 87 18 87
33 0 42 -22 42 -101 0 -84 12 -106 54 -95 27 7 36 37 36 127 0 53 2 59 28 71
35 17 41 52 10 71 -22 14 -113 20 -153 10z m-145 -149 c0 -114 -2 -125 -17
-122 -16 3 -18 18 -21 126 -2 117 -2 122 18 122 19 0 20 -6 20 -126z m88 4
c-3 -108 -5 -123 -20 -126 -16 -3 -18 8 -18 122 0 120 1 126 20 126 20 0 20
-5 18 -122z m212 102 c0 -16 -7 -20 -35 -20 l-35 0 0 -106 c0 -95 -2 -105 -17
-102 -16 3 -18 16 -18 105 l0 102 -35 3 c-24 2 -36 9 -38 21 -3 15 6 17 87 17
84 0 91 -1 91 -20z"/>
<path d="M2160 397 c-18 -10 -33 -10 -53 -3 -25 10 -31 8 -50 -15 -12 -15 -35
-29 -52 -33 -16 -4 -40 -17 -52 -28 l-22 -21 -33 28 c-29 24 -37 26 -82 20
-28 -3 -58 -13 -67 -21 -15 -13 -20 -13 -50 5 -48 29 -85 27 -120 -8 l-29 -29
0 32 c0 42 -26 78 -53 74 -13 -2 -35 -23 -53 -51 l-31 -48 -17 25 c-9 14 -16
29 -16 34 0 14 -35 42 -53 42 -35 0 -47 -40 -47 -150 0 -69 4 -110 12 -118 17
-17 48 -15 70 5 13 12 21 14 29 6 8 -8 18 -8 35 -1 20 10 28 8 49 -12 l25 -23
23 21 c21 20 24 21 40 5 22 -23 125 -30 151 -10 15 11 26 12 47 4 39 -15 59 4
59 59 0 23 5 46 11 49 7 5 9 -3 6 -24 -3 -17 -1 -33 4 -37 5 -3 9 -13 9 -22 0
-10 8 -22 19 -29 14 -9 24 -8 45 6 14 10 23 21 19 26 -5 5 8 -4 28 -19 30 -22
46 -26 90 -25 30 1 61 8 71 16 11 10 18 11 23 4 9 -16 51 -13 64 3 8 10 11 52
9 131 -3 132 -13 154 -58 132z m37 -23 c8 -21 -13 -42 -28 -27 -13 13 -5 43
11 43 6 0 13 -7 17 -16z m-821 -71 l36 -78 37 77 c24 52 42 77 54 78 15 0 17
-12 17 -126 0 -114 -2 -125 -17 -122 -16 3 -18 14 -16 82 1 43 -1 75 -4 72 -4
-3 -19 -34 -34 -68 -15 -35 -31 -64 -36 -65 -4 -2 -21 29 -38 69 l-30 71 -3
-82 c-2 -67 -6 -82 -18 -79 -8 2 -15 6 -15 11 1 4 1 59 1 122 0 143 13 150 66
38z m734 -48 c0 -101 -3 -125 -14 -125 -8 0 -16 6 -19 13 -4 10 -7 10 -18 0
-21 -21 -58 -15 -84 13 -66 71 6 209 82 159 l25 -17 -4 41 c-3 34 -1 41 14 41
16 0 18 -12 18 -125z m-426 54 c24 -19 26 -26 26 -100 0 -71 -9 -96 -24 -70
-4 5 -18 5 -35 -2 -23 -8 -34 -7 -54 6 -64 42 -18 130 59 111 25 -6 30 1 15
24 -5 9 -22 13 -46 10 -46 -4 -58 16 -18 30 41 15 47 14 77 -9z m206 -5 c11
-11 15 -36 15 -92 0 -62 -3 -77 -15 -77 -12 0 -16 17 -20 75 l-5 75 -30 0 -30
0 -5 -75 c-4 -58 -8 -75 -20 -75 -12 0 -16 18 -18 94 -3 93 -3 93 20 88 13 -4
30 -2 38 3 18 11 49 4 70 -16z m308 -76 c-2 -75 -6 -93 -18 -93 -12 0 -16 18
-18 93 -3 87 -2 92 18 92 20 0 21 -5 18 -92z"/>
<path d="M1994 265 c-26 -39 -9 -89 32 -93 27 -3 33 1 44 29 12 27 11 36 -1
58 -20 36 -53 39 -75 6z"/>
<path d="M1604 205 c-8 -21 4 -35 30 -35 25 0 46 17 46 37 0 19 -69 17 -76 -2z"/>
</g>
</svg>
